<?xml version="1.0" encoding="iso-8859-1"?>
<!-- Generator: Adobe Illustrator 19.0.0, SVG Export Plug-In . SVG Version: 6.00 Build 0)  -->
<svg version="1.1" id="Capa_1" xmlns="http://www.w3.org/2000/svg" xmlns:xlink="http://www.w3.org/1999/xlink" x="0px" y="0px"
	 viewBox="0 0 512 512" style="enable-background:new 0 0 512 512;" xml:space="preserve">
<g>
	<polygon style="fill:#49D0E5;" points="358.378,504.565 380.262,452.173 432.654,474.056 325.875,214.09 251.598,244.599 	"/>
	<polygon style="fill:#49D0E5;" points="153.622,504.565 131.738,452.173 79.346,474.056 186.125,214.09 260.401,244.599 	"/>
	<polygon style="fill:#49D0E5;" points="356.679,289.086 333.111,318.637 292.547,318.637 283.751,322.874 358.378,504.565 
		380.262,452.173 432.654,474.056 	"/>
	<polygon style="fill:#49D0E5;" points="178.889,318.637 155.322,289.086 79.346,474.056 131.738,452.173 153.622,504.565 
		228.25,322.874 219.452,318.637 	"/>
</g>
<g>
	<polygon style="fill:#1BC4DE;" points="333.111,318.637 356.679,289.086 325.875,214.09 256,242.792 260.401,244.599 256,255.314 
		283.751,322.874 292.547,318.637 	"/>
	<polygon style="fill:#1BC4DE;" points="251.598,244.599 256,242.792 186.125,214.09 155.322,289.086 178.889,318.637 
		219.452,318.637 228.25,322.874 256,255.314 	"/>
</g>
<g>
	<polygon style="fill:#49D0E5;" points="256,255.314 260.401,244.599 256,242.792 251.598,244.599 	"/>
	<polygon style="fill:#49D0E5;" points="256,7.527 287.049,22.48 321.51,22.48 342.998,49.423 374.047,64.375 381.715,97.973 
		403.202,124.916 395.534,158.514 403.202,192.112 381.715,219.056 374.047,252.653 342.998,267.605 321.51,294.549 
		287.049,294.549 256,309.502 224.951,294.549 190.489,294.549 169.003,267.605 137.954,252.653 130.285,219.056 108.799,192.112 
		116.467,158.514 108.799,124.916 130.285,97.973 137.954,64.375 169.003,49.423 190.489,22.48 224.951,22.48 	"/>
</g>
<circle style="fill:#FDE180;" cx="255.998" cy="158.516" r="104.387"/>
<path style="fill:#FCDA60;" d="M280.089,248.419c-57.651,0-104.387-46.736-104.387-104.387c0-32.953,15.274-62.333,39.122-81.464
	c-37.176,15.975-63.211,52.918-63.211,95.945c0,57.651,46.735,104.387,104.387,104.387c24.698,0,47.389-8.584,65.265-22.923
	C308.631,245.407,294.712,248.419,280.089,248.419z"/>
<path d="M439.618,471.196l-82.905-201.84l20.599-9.921c2.065-0.994,3.563-2.873,4.073-5.107l7.286-31.923l20.416-25.601
	c1.428-1.791,1.963-4.134,1.453-6.369l-7.286-31.923l7.286-31.922c0.51-2.234-0.025-4.578-1.453-6.369l-20.416-25.601l-7.286-31.923
	c-0.51-2.234-2.008-4.113-4.073-5.107l-29.501-14.208l-20.416-25.6c-1.428-1.791-3.595-2.833-5.886-2.833h-32.743L259.267,0.745
	c-2.065-0.994-4.469-0.994-6.533,0l-29.501,14.207h-32.743c-2.29,0-4.456,1.043-5.886,2.833l-20.416,25.6l-29.501,14.208
	c-2.064,0.994-3.563,2.873-4.073,5.107l-7.286,31.923l-20.416,25.601c-1.428,1.791-1.963,4.134-1.453,6.369l7.286,31.922
	l-7.286,31.923c-0.51,2.234,0.025,4.578,1.453,6.369l20.416,25.601l7.286,31.923c0.51,2.234,2.008,4.113,4.073,5.107l20.6,9.921
	L72.383,471.196c-2.496,6.074,3.806,12.334,9.865,9.807l45.446-18.982l18.982,45.445c2.532,6.064,11.412,6.039,13.91-0.041
	L241.348,310.8l11.386,5.483c1.032,0.497,2.15,0.746,3.266,0.746c1.117,0,2.234-0.249,3.266-0.746l11.386-5.483l80.762,196.624
	c2.497,6.081,11.376,6.106,13.91,0.041l18.982-45.445l45.446,18.982C435.811,483.53,442.114,477.271,439.618,471.196z
	 M153.563,484.893l-14.879-35.622c-1.602-3.836-6.012-5.648-9.847-4.045l-35.623,14.879l74.681-181.816l16.71,20.953
	c1.428,1.792,3.595,2.835,5.886,2.835h32.743l4.526,2.18L153.563,484.893z M256,301.147l-27.783-13.38
	c-1.019-0.491-2.135-0.746-3.266-0.746h-30.836l-19.226-24.109c-0.706-0.884-1.601-1.599-2.62-2.09l-27.783-13.379l-6.861-30.063
	c-0.252-1.103-0.749-2.134-1.453-3.018l-19.226-24.11l6.861-30.063c0.251-1.103,0.251-2.247,0-3.35l-6.861-30.062l19.226-24.11
	c0.706-0.884,1.201-1.915,1.453-3.018l6.861-30.063l27.783-13.381c1.019-0.49,1.914-1.204,2.619-2.088l19.226-24.109h30.836
	c1.131,0,2.247-0.255,3.266-0.746l27.783-13.38l27.783,13.38c1.019,0.491,2.135,0.746,3.266,0.746h30.836l19.226,24.109
	c0.706,0.883,1.6,1.598,2.619,2.088l27.783,13.381l6.861,30.063c0.252,1.103,0.749,2.134,1.453,3.018l19.226,24.11l-6.861,30.062
	c-0.251,1.103-0.251,2.247,0,3.35l6.861,30.063l-19.226,24.11c-0.706,0.884-1.201,1.915-1.453,3.018l-6.861,30.063l-27.783,13.379
	c-1.019,0.491-1.914,1.205-2.62,2.09l-19.226,24.109h-30.836c-1.131,0-2.247,0.255-3.266,0.746L256,301.147z M383.164,445.226
	c-3.836-1.603-8.245,0.209-9.847,4.045l-14.879,35.622l-74.196-180.637l4.526-2.18h32.743c2.29,0,4.457-1.043,5.886-2.835
	l16.71-20.953l74.68,181.816L383.164,445.226z"/>
<path d="M367.914,158.513c0-25.699-8.929-50.801-25.141-70.683c-2.628-3.22-7.37-3.702-10.591-1.076
	c-3.222,2.628-3.704,7.37-1.077,10.592c14.029,17.202,21.754,38.924,21.754,61.166c0,53.408-43.451,96.859-96.859,96.859
	s-96.859-43.451-96.859-96.859S202.592,61.655,256,61.655c16.732,0,33.222,4.332,47.685,12.529
	c3.617,2.052,8.211,0.781,10.261-2.837c2.05-3.617,0.78-8.211-2.838-10.261c-16.723-9.478-35.779-14.489-55.109-14.489
	c-61.71,0-111.914,50.205-111.914,111.914s50.205,111.914,111.914,111.914S367.914,220.224,367.914,158.513z"/>
<path d="M289.525,141.952c4.157,0,7.528-3.369,7.528-7.528v-8.03c0-17.434-14.184-31.617-31.617-31.617h-0.502V78.216
	c0-4.158-3.37-7.528-7.528-7.528c-4.157,0-7.528,3.369-7.528,7.528v16.736c-18.005,1.771-32.119,16.995-32.119,35.457
	c0,19.648,15.984,35.632,35.632,35.632h8.03c11.346,0,20.576,9.23,20.576,20.576c0,11.346-9.23,20.576-20.576,20.576h-12.045
	c-9.132,0-16.561-7.43-16.561-16.561c0-4.158-3.37-7.528-7.528-7.528s-7.528,3.369-7.528,7.528
	c0,17.434,14.184,31.617,31.617,31.617h0.502v16.561c0,4.158,3.37,7.528,7.528,7.528c4.157,0,7.528-3.369,7.528-7.528v-16.736
	c18.005-1.771,32.119-16.995,32.119-35.457c0-19.648-15.984-35.632-35.632-35.632h-8.03c-11.346,0-20.576-9.23-20.576-20.576
	c0-11.346,9.23-20.576,20.576-20.576h12.045c9.132,0,16.561,7.43,16.561,16.561v8.03
	C281.997,138.583,285.367,141.952,289.525,141.952z"/>
<g>
</g>
<g>
</g>
<g>
</g>
<g>
</g>
<g>
</g>
<g>
</g>
<g>
</g>
<g>
</g>
<g>
</g>
<g>
</g>
<g>
</g>
<g>
</g>
<g>
</g>
<g>
</g>
<g>
</g>
</svg>
